<svg viewBox="0 0 80 80" width="64" height="64" fill="#FFFFFF" xmlns="http://www.w3.org/2000/svg" aria-labelledby="title"><title>Python Icon</title><path d="M71.13,20.13H59.87V8.87L51,0H29L20.13,8.87V20.13H8.87L0,29V51l8.87,8.87H20.13V71.13L29,80H51l8.87-8.87V59.87H71.13L80,51V29ZM10.75,55.35,4.53,49.13V30.87l6.22-6.22H40V20.13H24.65V10.75l6.22-6.22H49.13l6.22,6.22V28.91L46.6,37.74H31.52L20.13,49.13v6.22Zm64.72-6.22-6.22,6.22H40v4.53H55.35v9.38l-6.22,6.22H30.87l-6.22-6.22V51l8.74-8.74h15.1l11.38-11.5V24.65h9.38l6.22,6.22Z"></path><rect x="30.19" y="9.81" width="4.53" height="5.03"></rect><rect x="45.28" y="65.16" width="4.53" height="5.03"></rect></svg>