<svg viewBox="0 0 80 80" width="64" height="64" fill="rgb(59, 62, 64)" xmlns="http://www.w3.org/2000/svg" aria-labelledby="title"><title>Git Icon</title><path d="M40,0,0,40,40,80,80,40ZM6.17,40,29.55,16.63l5.4,5.4L32.38,24.6l6,6V50.37l-6,6,8.23,8.23,8.23-8.23-6-6V30.65l.39-.39,7.61,7.61-2.57,2.57,8.23,8.23,8.23-8.23-8.23-8.23-2.57,2.57-7.61-7.61,2.57-2.57-8.23-8.23L38,18.94l-5.4-5.4L40,6.17,73.83,40,40,73.83ZM42.66,56.42l-2.06,2.06-2.06-2.06,2.06-2.06ZM40.61,26.66,38.55,24.6l2.06-2.06,2.06,2.06ZM54.39,40.44l2.06-2.06,2.06,2.06-2.06,2.06Z"></path></svg>