<svg viewBox="0 0 70.46 80" width="64" height="64" fill="rgb(59, 62, 64)" xmlns="http://www.w3.org/2000/svg" aria-labelledby="title"><title>Java Icon</title><polygon points="13.46 54.93 16.93 57.41 16.93 62.63 25.54 69.73 44.71 69.73 44.71 64.57 27.39 64.57 23.22 61.13 47.33 61.13 47.33 55.97 23.82 55.97 21.08 54.02 19.58 56.12 21.08 54.02 18.98 52.53 47.33 52.53 47.33 47.37 20.23 47.37 15.14 44.33 15.14 43.91 20.67 41.15 18.36 36.53 9.98 40.72 9.98 47.25 13.46 49.33 13.46 54.93"></polygon><polygon points="52.47 60.41 56.12 64.06 67.31 52.88 67.31 47.27 62.32 42.28 54.3 42.28 54.3 47.44 60.18 47.44 62.15 49.4 62.15 50.74 52.47 60.41"></polygon><polygon points="68.9 71.48 58.33 74.84 13.93 74.84 5.63 72.2 14.31 69.45 12.75 64.53 0 68.58 0 75.83 13.13 80 59.13 80 70.46 76.4 68.9 71.48"></polygon><polygon points="36.12 35.71 26.62 26.21 41.25 11.59 41.25 0 36.09 0 36.09 9.45 19.32 26.21 32.47 39.36 36.12 35.71"></polygon><polygon points="43.65 35.78 40.25 39.19 43.9 42.84 50.95 35.78 41.35 26.18 49.95 17.57 46.3 13.93 34.05 26.18 43.65 35.78"></polygon></svg>