<svg viewBox="0 0 100 46.58" width="64" height="64" fill="rgb(59, 62, 64)" xmlns="http://www.w3.org/2000/svg" aria-labelledby="title">
	<title>PHP Icon</title>
	<path d="M18.05,36.22a14.77,14.77,0,0,0,10.73-4.09,16.63,16.63,0,0,0,5-12.29c0-5.93-3.28-9-10-9.46H7.15L0,46.58H5.51l2-10.37ZM11.89,14h8c4.75,0,7.82,2.49,7.82,6.34v.11c-.57,9.73-5.66,11.6-10.57,12.14H8.79Z"></path>
	<path d="M65,17.54a5.15,5.15,0,0,0-.77-4.33c-1.25-1.63-3.78-2.61-7.3-2.84H45.78L47.75,0H42.22L35.06,36.21h5.52L45,14h9c1.3,0,3.16.16,4.27,1.51s.81,3.41.55,4.71l-3,16h6Z"></path>
	<path d="M84.23,36.22A14.79,14.79,0,0,0,95,32.12a16.63,16.63,0,0,0,5-12.29c0-5.93-3.28-9-10-9.46H73.33L66.17,46.58h5.51l2-10.37ZM78.07,14h8c4.75,0,7.82,2.49,7.82,6.34v.11c-.57,9.73-5.67,11.6-10.57,12.14H75Z">
	</path>
</svg>