<svg viewBox="0 0 66.92 80" width="64" height="64" fill="rgb(59, 62, 64)" xmlns="http://www.w3.org/2000/svg" aria-labelledby="title"><title>SQL Icon</title><path d="M46.94,0H20L0,6.81V29.87l20,6.81h27l20-6.81V6.81ZM20.79,4.81H46.15L57.07,8.53,46.14,12.26H20.78L9.85,8.53ZM62.12,26.43h0L46.14,31.87H20.78l-16-5.44V11.89l.06,0L20,17.07h27l15.18-5.17Z"></path><polygon points="62.12 48.5 62.08 48.51 46.13 53.94 20.78 53.94 4.81 48.5 4.81 36.51 0 34.88 0 51.94 19.99 58.75 46.94 58.75 66.92 51.94 66.92 34.88 62.12 36.51 62.12 48.5"></polygon><polygon points="62.12 69.75 62.08 69.76 46.13 75.19 20.78 75.19 4.81 69.75 4.81 57.76 0 56.13 0 73.19 19.99 80 46.94 80 66.92 73.19 66.92 56.13 62.12 57.76 62.12 69.75"></polygon></svg>